<?xml version="1.0" standalone="no"?>
<!DOCTYPE svg PUBLIC "-//W3C//DTD SVG 20010904//EN"
 "http://www.w3.org/TR/2001/REC-SVG-20010904/DTD/svg10.dtd">
<svg version="1.0" xmlns="http://www.w3.org/2000/svg"
 width="16.000000pt" height="16.000000pt" viewBox="0 0 16.000000 16.000000"
 preserveAspectRatio="xMidYMid meet">
<metadata>
Created by potrace 1.11, written by Peter Selinger 2001-2013
</metadata>
<g transform="translate(0.000000,16.000000) scale(0.001000,-0.001000)"
fill="#000000" stroke="none">
<path d="M3050 13314 c-93 -25 -162 -64 -231 -133 -126 -127 -174 -290 -134
-460 100 -421 654 -519 895 -159 127 191 101 455 -64 619 -123 124 -306 176
-466 133z"/>
<path d="M4380 13314 c-89 -24 -160 -65 -227 -131 -98 -97 -147 -214 -146
-348 1 -277 218 -495 493 -495 129 0 237 42 334 131 209 191 215 512 13 712
-126 124 -305 175 -467 131z"/>
<path d="M2665 11658 c-3 -7 -4 -2033 -3 -4503 l3 -4490 5335 0 5335 0 0 4500
0 4500 -5333 3 c-4261 2 -5334 0 -5337 -10z m5553 -2759 c297 -32 599 -134
841 -284 315 -195 572 -466 745 -786 l46 -85 -53 -13 c-137 -33 -321 -152
-427 -275 -132 -154 -220 -370 -220 -541 l0 -55 858 -1 c471 -1 1057 -4 1302
-8 l445 -6 50 -25 c135 -66 214 -223 185 -367 -17 -79 -43 -128 -101 -184 -74
-72 -132 -90 -309 -97 -90 -3 -148 -9 -152 -16 -4 -6 -8 -34 -8 -62 0 -77 -43
-232 -91 -328 -117 -237 -326 -406 -590 -478 l-84 -23 -2665 0 -2665 0 -90 28
c-375 118 -623 421 -660 808 l-6 67 -152 4 c-138 3 -157 6 -208 30 -79 36
-133 89 -171 166 -29 58 -33 76 -33 147 0 71 4 88 33 147 39 80 101 138 181
170 l56 23 1293 3 1293 2 -6 63 c-40 388 -280 691 -639 807 -36 12 -66 24 -66
27 0 3 27 54 61 113 319 562 893 946 1539 1029 96 12 356 13 468 0z"/>
</g>
</svg>
