<?xml version="1.0" standalone="no"?>
<!DOCTYPE svg PUBLIC "-//W3C//DTD SVG 20010904//EN"
 "http://www.w3.org/TR/2001/REC-SVG-20010904/DTD/svg10.dtd">
<svg version="1.0" xmlns="http://www.w3.org/2000/svg"
 width="16.000000pt" height="16.000000pt" viewBox="0 0 16.000000 16.000000"
 preserveAspectRatio="xMidYMid meet">
<metadata>
Created by potrace 1.11, written by Peter Selinger 2001-2013
</metadata>
<g transform="translate(0.000000,16.000000) scale(0.001255,-0.001255)"
fill="#000000" stroke="none">
<path d="M1020 5570 l0 -4500 5330 0 5330 0 0 4500 0 4500 -5330 0 -5330 0 0
-4500z m5605 1724 c344 -45 667 -178 953 -391 102 -76 288 -257 372 -363 83
-104 167 -232 211 -323 l34 -67 60 7 c96 12 274 7 347 -11 397 -94 672 -410
713 -818 l6 -67 382 -3 382 -3 56 -26 c158 -74 241 -245 195 -403 -31 -106
-91 -177 -191 -223 -56 -25 -71 -28 -211 -31 l-152 -4 -7 -67 c-35 -354 -245
-642 -565 -774 -36 -15 -92 -35 -125 -44 -56 -17 -216 -18 -2710 -21 -2913 -3
-2705 -7 -2874 58 -150 58 -312 184 -407 316 -92 128 -157 305 -171 460 l-6
72 -156 4 c-133 3 -163 7 -203 25 -66 30 -143 105 -175 172 -24 49 -28 68 -28
146 0 71 5 100 22 137 32 70 103 141 176 174 l62 29 1293 3 1292 2 0 51 c0 69
-26 190 -60 277 -94 242 -308 449 -546 527 -49 17 -91 31 -93 32 -14 9 115
229 206 350 79 105 248 280 352 362 454 361 990 510 1566 435z"/>
</g>
</svg>
